HIERARCHY
ROOT RootJoint
{
    OFFSET   0.000000   0.000000   0.000000
    CHANNELS 6 Xposition Yposition Zposition Xrotation Yrotation Zrotation
    JOINT pelvis_lowerback
    {
        OFFSET   0.000000   0.093605   0.000000
        CHANNELS 3 Xrotation Yrotation Zrotation
        JOINT lowerback_torso
        {
            OFFSET   0.000000   0.100000   0.000000
            CHANNELS 3 Xrotation Yrotation Zrotation
            JOINT torso_head
            {
                OFFSET   0.000000   0.282350   0.000000
                CHANNELS 3 Xrotation Yrotation Zrotation
                End Site
                {
                    OFFSET   0.000000   0.192650   0.000000
                }
            }
            JOINT rTorso_Clavicle
            {
                OFFSET  -0.001000   0.157500   0.000000
                CHANNELS 3 Xrotation Yrotation Zrotation
                JOINT rShoulder
                {
                    OFFSET  -0.117647   0.000000   0.000000
                    CHANNELS 3 Xrotation Yrotation Zrotation
                    JOINT rElbow
                    {
                        OFFSET  -0.245000   0.000000   0.000000
                        CHANNELS 3 Xrotation Yrotation Zrotation
                        JOINT rWrist
                        {
                            OFFSET  -0.240000   0.000000   0.000000
                            CHANNELS 3 Xrotation Yrotation Zrotation
                            End Site
                            {
                                OFFSET  -0.116353  -0.002500   0.000000
                            }
                        }
                    }
                }
            }
            JOINT lTorso_Clavicle
            {
                OFFSET   0.001000   0.157500   0.000000
                CHANNELS 3 Xrotation Yrotation Zrotation
                JOINT lShoulder
                {
                    OFFSET   0.117647   0.000000   0.000000
                    CHANNELS 3 Xrotation Yrotation Zrotation
                    JOINT lElbow
                    {
                        OFFSET   0.245000   0.000000   0.000000
                        CHANNELS 3 Xrotation Yrotation Zrotation
                        JOINT lWrist
                        {
                            OFFSET   0.240000   0.000000   0.000000
                            CHANNELS 3 Xrotation Yrotation Zrotation
                            End Site
                            {
                                OFFSET   0.116353  -0.002500   0.000000
                            }
                        }
                    }
                }
            }
        }
    }
    JOINT rHip
    {
        OFFSET  -0.100000  -0.051395   0.000000
        CHANNELS 3 Xrotation Yrotation Zrotation
        JOINT rKnee
        {
            OFFSET   0.000000  -0.410000   0.000000
            CHANNELS 3 Xrotation Yrotation Zrotation
            JOINT rAnkle
            {
                OFFSET   0.000000  -0.390000   0.000000
                CHANNELS 3 Xrotation Yrotation Zrotation
                JOINT rToeJoint
                {
                    OFFSET   0.000000  -0.050000   0.130000
                    CHANNELS 3 Xrotation Yrotation Zrotation
                    End Site
                    {
                        OFFSET  -0.010000   0.002000   0.060000
                    }
                }
            }
        }
    }
    JOINT lHip
    {
        OFFSET   0.100000  -0.051395   0.000000
        CHANNELS 3 Xrotation Yrotation Zrotation
        JOINT lKnee
        {
            OFFSET   0.000000  -0.410000   0.000000
            CHANNELS 3 Xrotation Yrotation Zrotation
            JOINT lAnkle
            {
                OFFSET   0.000000  -0.390000   0.000000
                CHANNELS 3 Xrotation Yrotation Zrotation
                JOINT lToeJoint
                {
                    OFFSET   0.000000  -0.050000   0.130000
                    CHANNELS 3 Xrotation Yrotation Zrotation
                    End Site
                    {
                        OFFSET   0.010000   0.002000   0.060000
                    }
                }
            }
        }
    }
}
MOTION
Frames: 14
Frame Time:   0.008333
 -2.376719   0.925631   3.975860   0.000000   0.000000   0.000000   0.000000   0.000000   0.000000   0.000000   0.000000   0.000000   0.000000   0.000000   0.000000   0.000000   0.000000   0.000000   0.000000   0.000000   0.000000   0.000000   0.000000   0.000000   0.000000   0.000000   0.000000   0.000000   0.000000   0.000000   0.000000   0.000000   0.000000   0.000000   0.000000   0.000000   0.000000   0.000000   0.000000   0.000000   0.000000   0.000000   0.000000   0.000000   0.000000   0.000000   0.000000   0.000000   0.000000   0.000000   0.000000   0.000000   0.000000   0.000000   0.000000   0.000000   0.000000   0.000000   0.000000   0.000000   0.000000   0.000000   0.000000
 -2.376111   0.925738   3.974093   1.923056   0.079699   0.413463  -1.927814   0.239416  -0.308840  -0.005425  -0.132501  -0.193278  -0.129899  -0.198368   0.162842   0.524810  -0.747764  -0.283762   1.140769  -0.060251   2.379549   0.008167   0.463966  -0.006678   0.191600   0.426184  -1.997738   0.119883   0.550792   0.444210   0.373511  -0.194730  -2.447338   0.013055  -0.713916   0.003035   0.109023  -0.207029   2.148367  -3.114003  -0.456185  -0.489501   2.492683   0.001293  -0.008726  -1.643819  -0.923117   0.901761  -0.384500   0.002772   0.004436  -2.560552  -0.146986  -0.600749   0.684981   0.001095  -0.000526  -0.589426  -0.039617   0.407266   0.120988  -0.000236  -0.000130
 -2.375358   0.925981   3.972305   3.782955   0.340951   0.869656  -3.660971   0.435490  -0.621846  -0.018515  -0.317047  -0.436354  -0.258644  -0.387607   0.317943   1.029931  -1.624021  -0.020321   2.284479  -0.210434   5.194687   0.016987   0.859044  -0.011235   0.436439   0.807038  -3.365376   0.230883   1.169375   0.267956   0.717399  -0.331632  -5.216507   0.028114  -1.377415   0.005519   0.244943  -0.545597   3.561348  -6.148165  -0.895462  -1.037999   4.980161   0.001484  -0.012577  -3.160662  -1.823431   1.713243  -0.762867   0.004679   0.007382  -5.056596  -0.265536  -1.331146   1.258760   0.002130  -0.000053  -1.148641  -0.086097   0.783742   0.177604  -0.000252  -0.000084
 -2.374625   0.926048   3.970627   5.532801   0.716381   1.291452  -5.235127   0.599892  -0.913621   0.003800  -0.522353  -0.686558  -0.363916  -0.563819   0.465188   1.513770  -2.529411   0.606303   3.430077  -0.378727   8.293527   0.024507   1.197401  -0.014048   0.670401   1.034441  -4.115017   0.341498   1.802425  -0.322607   1.034765  -0.433411  -8.116770   0.041463  -1.979739   0.007190   0.377628  -0.817222   4.275961  -8.996490  -1.280399  -1.554273   7.314919   0.000756  -0.012737  -4.565655  -2.683528   2.446379  -1.109232   0.005855   0.008936  -7.417292  -0.339407  -2.085135   1.765398   0.002957   0.000794  -1.673912  -0.133663   1.133330   0.212189  -0.000223  -0.000017
 -2.373976   0.925718   3.969083   7.178479   1.159857   1.663351  -6.678049   0.746775  -1.186770   0.048507  -0.730295  -0.933412  -0.449226  -0.728065   0.604580   1.981696  -3.419104   1.460207   4.580637  -0.522889  11.590258   0.030366   1.496318  -0.015658   0.888768   1.159332  -4.411499   0.456957   2.427848  -1.168433   1.329494  -0.517068 -11.039977   0.051898  -2.529850   0.008082   0.500788  -1.014449   4.489182 -11.665371  -1.617197  -2.020372   9.493551  -0.000423  -0.010995  -5.869541  -3.502166   3.110115  -1.432939   0.006559   0.009639  -9.639850  -0.373651  -2.832817   2.225263   0.003575   0.001687  -2.165671  -0.181058   1.458583   0.235082  -0.000186   0.000036
 -2.373435   0.924834   3.967688   8.727277   1.647229   1.983773  -8.009610   0.883367  -1.444354   0.103072  -0.931833  -1.174209  -0.519211  -0.881305   0.735114   2.435026  -4.271250   2.446244   5.735204  -0.619918  15.023146   0.034634   1.766487  -0.016441   1.093685   1.229036  -4.400049   0.578795   3.034110  -2.160423   1.603766  -0.591405 -13.915592   0.059199  -3.034960   0.008307   0.613985  -1.155390   4.367202 -14.165160  -1.913734  -2.435924  11.525417  -0.001711  -0.008336  -7.080386  -4.279633   3.711843  -1.735398   0.006917   0.009777 -11.726548  -0.374745  -3.563140   2.647678   0.004007   0.002503  -2.625426  -0.227854   1.761403   0.250617  -0.000150   0.000070
 -2.373012   0.923283   3.966448  10.185430   2.166524   2.254222  -9.245132   1.013167  -1.687842   0.158983  -1.122907  -1.407608  -0.577459  -1.024354   0.856288   2.873408  -5.076958   3.498317   6.890927  -0.658236  18.547917   0.037505   2.014091  -0.016652   1.287398   1.271104  -4.189333   0.706863   3.615953  -3.224331   1.859125  -0.660280 -16.699018   0.063593  -3.500308   0.008000   0.718192  -1.254800   4.030861 -16.504929  -2.176444  -2.804939  13.420950  -0.002893  -0.005274  -8.205341  -5.016648   4.257979  -2.017048   0.007016   0.009528 -13.681544  -0.348454  -4.270692   3.038397   0.004278   0.003207  -3.054944  -0.273766   2.043427   0.261217  -0.000119   0.000088
 -2.372703   0.920487   3.965337  11.024534   2.397562   2.505746  -9.824381   1.323264  -1.864202   0.309879  -1.411173  -1.643117  -0.777331  -1.456612   0.951659   3.263672  -5.510932   4.018814   7.996192  -0.345230  22.188809   0.025955   1.900132  -0.011535   1.444711   1.186666  -3.210831   0.846872   4.377747  -3.747428   2.039419  -0.906013 -19.595842   0.067935  -4.047158   0.008249   0.703014  -1.228762   3.140393 -18.500696  -2.393512  -3.052140  16.275255  -0.006774  -0.007436  -8.620605  -5.720765   4.727758  -2.458305   0.007271   0.011479 -15.026068  -0.192311  -4.890063   3.965109   0.005948   0.004251  -3.598118  -0.425705   2.535576   0.309595  -0.000180   0.000109
 -2.372365   0.917814   3.964078  11.727415   2.373362   2.568839 -10.306534   1.694577  -1.847921   0.501789  -1.606819  -1.794210  -0.956397  -1.876384   1.040043   3.598352  -5.806458   4.456736   8.977676   0.073299  25.529643   0.017833   1.810085  -0.007923   1.600265   1.101248  -2.232893   0.982534   5.087765  -4.223876   2.192257  -1.148619 -22.283451   0.069122  -4.564817   0.008159   0.691390  -1.241855   2.263580 -20.574338  -2.553333  -3.140545  18.711642  -0.008538  -0.011835  -9.896519  -6.363636   4.875621  -2.635665   0.006108   0.010658 -16.194001  -0.041350  -5.291032   4.953706   0.007652   0.003352  -4.091367  -0.569371   2.996460   0.401852  -0.000252  -0.000005
 -2.372019   0.915147   3.962990  12.306785   2.327191   2.575257 -10.745961   2.036687  -1.822275   0.704565  -1.778133  -1.901952  -1.112092  -2.270701   1.129123   3.896808  -6.053047   4.835155   9.856366   0.533055  28.619128   0.012099   1.737263  -0.005402   1.754519   1.073184  -1.335138   1.111149   5.744173  -4.617351   2.321458  -1.382700 -24.757515   0.067929  -5.050319   0.007545   0.682916  -1.271096   1.467589 -22.557170  -2.734552  -3.179509  21.205523  -0.010381  -0.015785 -10.908089  -6.969300   5.062800  -2.926498   0.005367   0.010966 -17.192595   0.089283  -5.663660   5.919685   0.009244   0.002372  -4.547366  -0.708849   3.425208   0.498564  -0.000255  -0.000119
 -2.371529   0.913782   3.962134  12.778567   2.402118   2.994468 -11.144979   2.339216  -2.159840   0.892671  -1.953526  -2.156506  -1.252077  -2.639560   1.200413   4.166384  -6.278528   5.277957  10.642976   1.012817  31.540504   0.007896   1.674018  -0.003621   1.903025   1.067918  -0.506484   1.230616   6.348573  -4.976676   2.429676  -1.604733 -27.028582   0.065461  -5.501387   0.006550   0.674361  -1.286897   0.813793 -24.394712  -2.868946  -3.691735  23.536769  -0.011126  -0.018819 -11.422304  -7.585594   5.336600  -3.198461   0.004708   0.011193 -18.268347   0.147403  -6.214370   6.924885   0.008379   0.000857  -4.703264  -0.917539   3.973993   0.628757  -0.000694  -0.000450
 -2.370976   0.912479   3.961724  13.135846   2.477080   3.373242 -11.539931   2.624985  -2.401669   1.070696  -2.118804  -2.415735  -1.380577  -2.983763   1.250381   4.424567  -6.507142   5.602431  11.360472   1.477549  34.224268   0.004758   1.613081  -0.002326   2.044423   1.070717   0.288869   1.350914   6.926049  -5.277496   2.526667  -1.806161 -29.148872   0.061765  -5.921698   0.005226   0.666328  -1.300703   0.163572 -26.032446  -2.988073  -4.172248  25.743143  -0.011553  -0.020576 -11.737905  -8.181290   5.629730  -3.441626   0.004100   0.011075 -19.172705   0.278443  -6.699840   7.919402   0.007544   0.000396  -4.961785  -1.049156   4.367823   0.716786  -0.000783  -0.000475
 -2.370420   0.911140   3.961662  13.428694   2.569048   3.734104 -11.948545   2.889238  -2.615697   1.218243  -2.277960  -2.658783  -1.504806  -3.305228   1.298756   4.676553  -6.741752   5.845451  12.020331   1.918662  36.686970   0.002333   1.549796  -0.001364   2.177831   1.048472   0.993956   1.471126   7.478913  -5.522131   2.614975  -1.985264 -31.105796   0.057249  -6.310815   0.003775   0.657822  -1.301427  -0.434058 -27.522586  -3.088824  -4.645440  27.827939  -0.011647  -0.021167 -11.953354  -8.746232   5.921835  -3.661869   0.003539   0.010681 -19.973490   0.414051  -7.163479   8.886992   0.006814   0.000237  -5.206097  -1.168259   4.728193   0.789764  -0.000797  -0.000456
 -2.370215   0.910712   3.961349  13.763757   2.373904   3.746260 -12.144394   3.064801  -2.634714   1.089617  -2.311931  -2.665886  -1.719991  -3.486390   1.346430   4.708565  -7.084523   5.669148  12.566436   2.464665  38.770886   0.003324   1.633160  -0.001442   2.202435   1.082885   2.248665   1.561588   8.012265  -5.532085   2.619041  -2.039191 -32.824786   0.051306  -6.668925   0.002421   0.644547  -1.190319  -1.523661 -28.497680  -3.494646  -4.648975  28.684848  -0.011673  -0.021272 -11.571521  -9.158609   5.997132  -4.672637   0.002991   0.018534 -20.582010   0.570067  -7.163322   9.380921   0.005613  -0.000293  -5.185719  -1.020743   5.102483   0.831212  -0.000754  -0.000352
